<?xml version="1.0" encoding="utf-8"?>
<!-- Generator: Adobe Illustrator 17.0.0, SVG Export Plug-In . SVG Version: 6.00 Build 0)  -->
<!DOCTYPE svg PUBLIC "-//W3C//DTD SVG 1.1//EN" "http://www.w3.org/Graphics/SVG/1.1/DTD/svg11.dtd">
<svg version="1.1" id="Capa_1" xmlns="http://www.w3.org/2000/svg" xmlns:xlink="http://www.w3.org/1999/xlink" x="0px" y="0px"
	 width="123.403px" height="112.099px" viewBox="0 0 123.403 112.099" enable-background="new 0 0 123.403 112.099"
	 xml:space="preserve">
<g>
	<g>
		<path fill="#33322D" d="M76.05,59.734c-1.177-1.405-12.853-14.381-13.393-14.979L35.594,13.614L8.654,79.577h16.958l14.62-36.559
			l21.304,23.584c1.407,1.514,2.522,2.726,2.869,3.143c3.155,3.776,4.074,5.181,4.074,7.204c0,3.757-3.055,6.812-6.809,6.812
			c-3.757,0-6.812-3.055-6.812-6.812c0-2.051,2.527-4.964,4.759-7.538l1.508-1.678l-9.987-11.049l-2.639,3.071
			c-3.726,4.297-8.367,9.639-8.367,17.194c0,11.874,9.661,21.535,21.538,21.535c11.874,0,21.535-9.661,21.535-21.535
			C83.204,69.323,79.587,63.967,76.05,59.734z"/>
		<g>
			<polygon fill="#33322D" points="87.809,13.614 62.403,42.848 72.868,54.427 83.171,43.018 97.792,79.577 114.749,79.577 			"/>
		</g>
	</g>
</g>
</svg>
